# xmcd CD database file
#
# Track frame offsets:
#	150
#	13132
#	26400
#	40362
#	52970
#	71860
#	83947
#	89807
#	98407
#	114067
#	124985
#	140545
#	151380
#	162890
#	179197
#	192455
#	207275
#	218150
#	227220
#	235697
#
# Disc length: 3331 seconds
#
# Revision: 0
# Processed by: cddbd v1.5PL3 Copyright (c) Steve Scherf et al.
# Submitted via: CDex 1.51
#
DISCID=1c0d0114
DTITLE=ダーク・ダックス - 決定版！ダーク・ダックス
DYEAR=1900
DGENRE=
TTITLE0=山男の歌
TTITLE1=雪山讃歌
TTITLE2=いつかある日
TTITLE3=エーデルワイスの歌
TTITLE4=山のロザリア
TTITLE5=山賊の唄
TTITLE6=アルプス一万尺
TTITLE7=熊彫さん
TTITLE8=シャロームの歌
TTITLE9=トムピリビ
TTITLE10=花のメルヘン
TTITLE11=あんな娘がいいな
TTITLE12=銀色の道
TTITLE13=あざみの歌
TTITLE14=早春賦
TTITLE15=アンジェリータ
TTITLE16=すずらん
TTITLE17=カチューシャ
TTITLE18=一週間
TTITLE19=神田川
EXTD=
EXTT0=
EXTT1=
EXTT2=
EXTT3=
EXTT4=
EXTT5=
EXTT6=
EXTT7=
EXTT8=
EXTT9=
EXTT10=
EXTT11=
EXTT12=
EXTT13=
EXTT14=
EXTT15=
EXTT16=
EXTT17=
EXTT18=
EXTT19=
PLAYORDER=
